{
  "asset": {
    "version": "2.0",
    "generator": "36TY helmet builder"
  },
  "scene": 0,
  "scenes": [
    {
      "name": "Helmet",
      "nodes": [
        0,
        1,
        2,
        3,
        4,
        5,
        6,
        7,
        8,
        9,
        10
      ]
    }
  ],
  "nodes": [
    {
      "name": "HelmetDome",
      "mesh": 0
    },
    {
      "name": "HelmetVisor",
      "mesh": 1
    },
    {
      "name": "HelmetTrim",
      "mesh": 2
    },
    {
      "name": "HelmetBrow",
      "mesh": 3
    },
    {
      "name": "HelmetBadge",
      "mesh": 4
    },
    {
      "name": "HelmetEarL",
      "mesh": 5
    },
    {
      "name": "HelmetEarR",
      "mesh": 6
    },
    {
      "name": "HelmetChin",
      "mesh": 7
    },
    {
      "name": "HelmetGrill",
      "mesh": 8
    },
    {
      "name": "HelmetCrest",
      "mesh": 9
    },
    {
      "name": "HelmetAntenna",
      "mesh": 10
    }
  ],
  "meshes": [
    {
      "name": "HelmetDome",
      "primitives": [
        {
          "attributes": {
            "POSITION": 0,
            "NORMAL": 1,
            "TEXCOORD_0": 2
          },
          "indices": 3,
          "material": 0
        }
      ]
    },
    {
      "name": "HelmetVisor",
      "primitives": [
        {
          "attributes": {
            "POSITION": 4,
            "NORMAL": 5,
            "TEXCOORD_0": 6
          },
          "indices": 7,
          "material": 2
        }
      ]
    },
    {
      "name": "HelmetTrim",
      "primitives": [
        {
          "attributes": {
            "POSITION": 8,
            "NORMAL": 9,
            "TEXCOORD_0": 10
          },
          "indices": 11,
          "material": 1
        }
      ]
    },
    {
      "name": "HelmetBrow",
      "primitives": [
        {
          "attributes": {
            "POSITION": 12,
            "NORMAL": 13,
            "TEXCOORD_0": 14
          },
          "indices": 15,
          "material": 1
        }
      ]
    },
    {
      "name": "HelmetBadge",
      "primitives": [
        {
          "attributes": {
            "POSITION": 16,
            "NORMAL": 17,
            "TEXCOORD_0": 18
          },
          "indices": 19,
          "material": 1
        }
      ]
    },
    {
      "name": "HelmetEarL",
      "primitives": [
        {
          "attributes": {
            "POSITION": 20,
            "NORMAL": 21,
            "TEXCOORD_0": 22
          },
          "indices": 23,
          "material": 1
        }
      ]
    },
    {
      "name": "HelmetEarR",
      "primitives": [
        {
          "attributes": {
            "POSITION": 24,
            "NORMAL": 25,
            "TEXCOORD_0": 26
          },
          "indices": 27,
          "material": 1
        }
      ]
    },
    {
      "name": "HelmetChin",
      "primitives": [
        {
          "attributes": {
            "POSITION": 28,
            "NORMAL": 29,
            "TEXCOORD_0": 30
          },
          "indices": 31,
          "material": 0
        }
      ]
    },
    {
      "name": "HelmetGrill",
      "primitives": [
        {
          "attributes": {
            "POSITION": 32,
            "NORMAL": 33,
            "TEXCOORD_0": 34
          },
          "indices": 35,
          "material": 3
        }
      ]
    },
    {
      "name": "HelmetCrest",
      "primitives": [
        {
          "attributes": {
            "POSITION": 36,
            "NORMAL": 37,
            "TEXCOORD_0": 38
          },
          "indices": 39,
          "material": 1
        }
      ]
    },
    {
      "name": "HelmetAntenna",
      "primitives": [
        {
          "attributes": {
            "POSITION": 40,
            "NORMAL": 41,
            "TEXCOORD_0": 42
          },
          "indices": 43,
          "material": 1
        }
      ]
    }
  ],
  "materials": [
    {
      "name": "ChromeSilver",
      "pbrMetallicRoughness": {
        "baseColorFactor": [
          0.82,
          0.83,
          0.86,
          1
        ],
        "metallicFactor": 1,
        "roughnessFactor": 0.11
      }
    },
    {
      "name": "GoldFoil",
      "pbrMetallicRoughness": {
        "baseColorFactor": [
          0.831,
          0.686,
          0.216,
          1
        ],
        "metallicFactor": 1,
        "roughnessFactor": 0.2
      }
    },
    {
      "name": "VisorGlass",
      "pbrMetallicRoughness": {
        "baseColorFactor": [
          0.03,
          0.03,
          0.035,
          1
        ],
        "metallicFactor": 0.92,
        "roughnessFactor": 0.045
      }
    },
    {
      "name": "Gunmetal",
      "pbrMetallicRoughness": {
        "baseColorFactor": [
          0.16,
          0.16,
          0.18,
          1
        ],
        "metallicFactor": 1,
        "roughnessFactor": 0.38
      }
    }
  ],
  "accessors": [
    {
      "bufferView": 0,
      "componentType": 5126,
      "count": 1189,
      "type": "VEC3",
      "min": [
        -1.0495532751083374,
        -0.33229950070381165,
        -1.079540491104126
      ],
      "max": [
        1.0495532751083374,
        1.2000000476837158,
        1.079540491104126
      ]
    },
    {
      "bufferView": 1,
      "componentType": 5126,
      "count": 1189,
      "type": "VEC3"
    },
    {
      "bufferView": 2,
      "componentType": 5126,
      "count": 1189,
      "type": "VEC2"
    },
    {
      "bufferView": 3,
      "componentType": 5123,
      "count": 6720,
      "type": "SCALAR"
    },
    {
      "bufferView": 4,
      "componentType": 5126,
      "count": 759,
      "type": "VEC3",
      "min": [
        -0.43684953451156616,
        -0.18444262444972992,
        0.735859751701355
      ],
      "max": [
        0.8662804365158081,
        0.4242658019065857,
        1.2839261293411255
      ]
    },
    {
      "bufferView": 5,
      "componentType": 5126,
      "count": 759,
      "type": "VEC3"
    },
    {
      "bufferView": 6,
      "componentType": 5126,
      "count": 759,
      "type": "VEC2"
    },
    {
      "bufferView": 7,
      "componentType": 5123,
      "count": 4224,
      "type": "SCALAR"
    },
    {
      "bufferView": 8,
      "componentType": 5126,
      "count": 833,
      "type": "VEC3",
      "min": [
        -1.0132499933242798,
        -0.5305631160736084,
        -0.8300882577896118
      ],
      "max": [
        1.0132499933242798,
        0.29056310653686523,
        0.9900882840156555
      ]
    },
    {
      "bufferView": 9,
      "componentType": 5126,
      "count": 833,
      "type": "VEC3"
    },
    {
      "bufferView": 10,
      "componentType": 5126,
      "count": 833,
      "type": "VEC2"
    },
    {
      "bufferView": 11,
      "componentType": 5123,
      "count": 4608,
      "type": "SCALAR"
    },
    {
      "bufferView": 12,
      "componentType": 5126,
      "count": 429,
      "type": "VEC3",
      "min": [
        -0.8140183091163635,
        -0.36542531847953796,
        0.3167354166507721
      ],
      "max": [
        0.8149999976158142,
        0.39733701944351196,
        0.9393279552459717
      ]
    },
    {
      "bufferView": 13,
      "componentType": 5126,
      "count": 429,
      "type": "VEC3"
    },
    {
      "bufferView": 14,
      "componentType": 5126,
      "count": 429,
      "type": "VEC2"
    },
    {
      "bufferView": 15,
      "componentType": 5123,
      "count": 2304,
      "type": "SCALAR"
    },
    {
      "bufferView": 16,
      "componentType": 5126,
      "count": 24,
      "type": "VEC3",
      "min": [
        -0.23000000417232513,
        0.23787015676498413,
        0.7008143067359924
      ],
      "max": [
        0.23000000417232513,
        0.482129842042923,
        0.7791856527328491
      ]
    },
    {
      "bufferView": 17,
      "componentType": 5126,
      "count": 24,
      "type": "VEC3"
    },
    {
      "bufferView": 18,
      "componentType": 5126,
      "count": 24,
      "type": "VEC2"
    },
    {
      "bufferView": 19,
      "componentType": 5123,
      "count": 36,
      "type": "SCALAR"
    },
    {
      "bufferView": 20,
      "componentType": 5126,
      "count": 357,
      "type": "VEC3",
      "min": [
        -1.215999960899353,
        -0.3140000104904175,
        -0.18799999356269836
      ],
      "max": [
        -0.8240000009536743,
        0.27399998903274536,
        0.2879999876022339
      ]
    },
    {
      "bufferView": 21,
      "componentType": 5126,
      "count": 357,
      "type": "VEC3"
    },
    {
      "bufferView": 22,
      "componentType": 5126,
      "count": 357,
      "type": "VEC2"
    },
    {
      "bufferView": 23,
      "componentType": 5123,
      "count": 1920,
      "type": "SCALAR"
    },
    {
      "bufferView": 24,
      "componentType": 5126,
      "count": 357,
      "type": "VEC3",
      "min": [
        0.8240000009536743,
        -0.3140000104904175,
        -0.18799999356269836
      ],
      "max": [
        1.215999960899353,
        0.27399998903274536,
        0.2879999876022339
      ]
    },
    {
      "bufferView": 25,
      "componentType": 5126,
      "count": 357,
      "type": "VEC3"
    },
    {
      "bufferView": 26,
      "componentType": 5126,
      "count": 357,
      "type": "VEC2"
    },
    {
      "bufferView": 27,
      "componentType": 5123,
      "count": 1920,
      "type": "SCALAR"
    },
    {
      "bufferView": 28,
      "componentType": 5126,
      "count": 24,
      "type": "VEC3",
      "min": [
        -0.4749999940395355,
        -0.5401971936225891,
        -0.0038671025540679693
      ],
      "max": [
        0.4749999940395355,
        -0.29980283975601196,
        0.5638670921325684
      ]
    },
    {
      "bufferView": 29,
      "componentType": 5126,
      "count": 24,
      "type": "VEC3"
    },
    {
      "bufferView": 30,
      "componentType": 5126,
      "count": 24,
      "type": "VEC2"
    },
    {
      "bufferView": 31,
      "componentType": 5123,
      "count": 36,
      "type": "SCALAR"
    },
    {
      "bufferView": 32,
      "componentType": 5126,
      "count": 24,
      "type": "VEC3",
      "min": [
        -0.36000001430511475,
        -0.5448518991470337,
        0.12672170996665955
      ],
      "max": [
        0.36000001430511475,
        -0.4151480793952942,
        0.5532782673835754
      ]
    },
    {
      "bufferView": 33,
      "componentType": 5126,
      "count": 24,
      "type": "VEC3"
    },
    {
      "bufferView": 34,
      "componentType": 5126,
      "count": 24,
      "type": "VEC2"
    },
    {
      "bufferView": 35,
      "componentType": 5123,
      "count": 36,
      "type": "SCALAR"
    },
    {
      "bufferView": 36,
      "componentType": 5126,
      "count": 24,
      "type": "VEC3",
      "min": [
        -0.03999999910593033,
        0.8399999737739563,
        -0.7250000238418579
      ],
      "max": [
        0.03999999910593033,
        1.059999942779541,
        0.625
      ]
    },
    {
      "bufferView": 37,
      "componentType": 5126,
      "count": 24,
      "type": "VEC3"
    },
    {
      "bufferView": 38,
      "componentType": 5126,
      "count": 24,
      "type": "VEC2"
    },
    {
      "bufferView": 39,
      "componentType": 5123,
      "count": 36,
      "type": "SCALAR"
    },
    {
      "bufferView": 40,
      "componentType": 5126,
      "count": 46,
      "type": "VEC3",
      "min": [
        0.5932126045227051,
        0.5965006947517395,
        -0.23462291061878204
      ],
      "max": [
        0.8403399586677551,
        1.106642246246338,
        -0.058926649391651154
      ]
    },
    {
      "bufferView": 41,
      "componentType": 5126,
      "count": 46,
      "type": "VEC3"
    },
    {
      "bufferView": 42,
      "componentType": 5126,
      "count": 46,
      "type": "VEC2"
    },
    {
      "bufferView": 43,
      "componentType": 5123,
      "count": 120,
      "type": "SCALAR"
    }
  ],
  "bufferViews": [
    {
      "buffer": 0,
      "byteOffset": 0,
      "byteLength": 14268,
      "target": 34962,
      "byteStride": 12
    },
    {
      "buffer": 0,
      "byteOffset": 14268,
      "byteLength": 14268,
      "target": 34962,
      "byteStride": 12
    },
    {
      "buffer": 0,
      "byteOffset": 28536,
      "byteLength": 9512,
      "target": 34962,
      "byteStride": 8
    },
    {
      "buffer": 0,
      "byteOffset": 38048,
      "byteLength": 13440,
      "target": 34963
    },
    {
      "buffer": 0,
      "byteOffset": 51488,
      "byteLength": 9108,
      "target": 34962,
      "byteStride": 12
    },
    {
      "buffer": 0,
      "byteOffset": 60596,
      "byteLength": 9108,
      "target": 34962,
      "byteStride": 12
    },
    {
      "buffer": 0,
      "byteOffset": 69704,
      "byteLength": 6072,
      "target": 34962,
      "byteStride": 8
    },
    {
      "buffer": 0,
      "byteOffset": 75776,
      "byteLength": 8448,
      "target": 34963
    },
    {
      "buffer": 0,
      "byteOffset": 84224,
      "byteLength": 9996,
      "target": 34962,
      "byteStride": 12
    },
    {
      "buffer": 0,
      "byteOffset": 94220,
      "byteLength": 9996,
      "target": 34962,
      "byteStride": 12
    },
    {
      "buffer": 0,
      "byteOffset": 104216,
      "byteLength": 6664,
      "target": 34962,
      "byteStride": 8
    },
    {
      "buffer": 0,
      "byteOffset": 110880,
      "byteLength": 9216,
      "target": 34963
    },
    {
      "buffer": 0,
      "byteOffset": 120096,
      "byteLength": 5148,
      "target": 34962,
      "byteStride": 12
    },
    {
      "buffer": 0,
      "byteOffset": 125244,
      "byteLength": 5148,
      "target": 34962,
      "byteStride": 12
    },
    {
      "buffer": 0,
      "byteOffset": 130392,
      "byteLength": 3432,
      "target": 34962,
      "byteStride": 8
    },
    {
      "buffer": 0,
      "byteOffset": 133824,
      "byteLength": 4608,
      "target": 34963
    },
    {
      "buffer": 0,
      "byteOffset": 138432,
      "byteLength": 288,
      "target": 34962,
      "byteStride": 12
    },
    {
      "buffer": 0,
      "byteOffset": 138720,
      "byteLength": 288,
      "target": 34962,
      "byteStride": 12
    },
    {
      "buffer": 0,
      "byteOffset": 139008,
      "byteLength": 192,
      "target": 34962,
      "byteStride": 8
    },
    {
      "buffer": 0,
      "byteOffset": 139200,
      "byteLength": 72,
      "target": 34963
    },
    {
      "buffer": 0,
      "byteOffset": 139272,
      "byteLength": 4284,
      "target": 34962,
      "byteStride": 12
    },
    {
      "buffer": 0,
      "byteOffset": 143556,
      "byteLength": 4284,
      "target": 34962,
      "byteStride": 12
    },
    {
      "buffer": 0,
      "byteOffset": 147840,
      "byteLength": 2856,
      "target": 34962,
      "byteStride": 8
    },
    {
      "buffer": 0,
      "byteOffset": 150696,
      "byteLength": 3840,
      "target": 34963
    },
    {
      "buffer": 0,
      "byteOffset": 154536,
      "byteLength": 4284,
      "target": 34962,
      "byteStride": 12
    },
    {
      "buffer": 0,
      "byteOffset": 158820,
      "byteLength": 4284,
      "target": 34962,
      "byteStride": 12
    },
    {
      "buffer": 0,
      "byteOffset": 163104,
      "byteLength": 2856,
      "target": 34962,
      "byteStride": 8
    },
    {
      "buffer": 0,
      "byteOffset": 165960,
      "byteLength": 3840,
      "target": 34963
    },
    {
      "buffer": 0,
      "byteOffset": 169800,
      "byteLength": 288,
      "target": 34962,
      "byteStride": 12
    },
    {
      "buffer": 0,
      "byteOffset": 170088,
      "byteLength": 288,
      "target": 34962,
      "byteStride": 12
    },
    {
      "buffer": 0,
      "byteOffset": 170376,
      "byteLength": 192,
      "target": 34962,
      "byteStride": 8
    },
    {
      "buffer": 0,
      "byteOffset": 170568,
      "byteLength": 72,
      "target": 34963
    },
    {
      "buffer": 0,
      "byteOffset": 170640,
      "byteLength": 288,
      "target": 34962,
      "byteStride": 12
    },
    {
      "buffer": 0,
      "byteOffset": 170928,
      "byteLength": 288,
      "target": 34962,
      "byteStride": 12
    },
    {
      "buffer": 0,
      "byteOffset": 171216,
      "byteLength": 192,
      "target": 34962,
      "byteStride": 8
    },
    {
      "buffer": 0,
      "byteOffset": 171408,
      "byteLength": 72,
      "target": 34963
    },
    {
      "buffer": 0,
      "byteOffset": 171480,
      "byteLength": 288,
      "target": 34962,
      "byteStride": 12
    },
    {
      "buffer": 0,
      "byteOffset": 171768,
      "byteLength": 288,
      "target": 34962,
      "byteStride": 12
    },
    {
      "buffer": 0,
      "byteOffset": 172056,
      "byteLength": 192,
      "target": 34962,
      "byteStride": 8
    },
    {
      "buffer": 0,
      "byteOffset": 172248,
      "byteLength": 72,
      "target": 34963
    },
    {
      "buffer": 0,
      "byteOffset": 172320,
      "byteLength": 552,
      "target": 34962,
      "byteStride": 12
    },
    {
      "buffer": 0,
      "byteOffset": 172872,
      "byteLength": 552,
      "target": 34962,
      "byteStride": 12
    },
    {
      "buffer": 0,
      "byteOffset": 173424,
      "byteLength": 368,
      "target": 34962,
      "byteStride": 8
    },
    {
      "buffer": 0,
      "byteOffset": 173792,
      "byteLength": 240,
      "target": 34963
    }
  ],
  "buffers": [
    {
      "byteLength": 174032,
      "uri": "helmet.bin"
    }
  ]
}